<svg width="390" height="390" viewBox="0 0 390 390" fill="none" xmlns="http://www.w3.org/2000/svg">
<g filter="url(#filter0_di)">
<path d="M315.027 53.6357C280.823 20.4121 248.1 20.6126 194.127 20.9432C140.154 21.2739 106.722 21.4787 73.6368 55.1145C40.5513 88.7503 40.6136 122.041 40.9442 176.014C41.2749 229.987 41.4753 262.71 75.1156 296.504C108.756 330.297 142.042 329.385 196.015 329.055C249.987 328.724 283.278 328.52 316.506 295.025C349.734 261.53 349.387 228.099 349.057 174.126C348.726 120.154 348.521 86.7219 315.027 53.6357Z" fill="white"/>
</g>
<path d="M258.347 119.433C258.196 118.587 257.442 118.023 256.688 118.023C255.934 118.023 241.606 117.037 241.606 117.037C241.606 117.037 231.652 107.735 230.445 106.748C229.39 105.762 227.127 106.044 226.373 106.325C226.222 106.325 224.111 106.889 220.793 107.876C217.475 98.8557 211.593 90.5404 201.186 90.5404C200.885 90.5404 200.583 90.5404 200.281 90.5404C197.265 86.876 193.645 85.3257 190.478 85.3257C166.196 85.3257 154.583 113.654 150.963 128.03C141.613 130.708 134.826 132.681 134.072 132.963C128.793 134.513 128.642 134.654 128.039 139.305C127.436 142.687 113.711 242.048 113.711 242.048L220.793 260.793L278.858 249.095C278.858 249.095 258.498 120.419 258.347 119.433ZM214.76 109.567C212.045 110.413 209.029 111.258 205.711 112.245C205.711 111.681 205.711 111.117 205.711 110.413C205.711 104.775 204.806 100.265 203.599 96.7416C209.029 97.3054 212.498 102.943 214.76 109.567ZM196.963 97.7282C198.472 101.252 199.376 106.184 199.376 112.949C199.376 113.231 199.376 113.654 199.376 113.936C193.494 115.627 187.009 117.459 180.675 119.292C184.294 106.466 191.081 100.124 196.963 97.7282ZM189.724 91.386C190.78 91.386 191.835 91.6679 192.891 92.3726C185.199 95.7551 176.754 104.352 173.285 121.547C168.157 123.097 163.18 124.506 158.504 125.775C162.576 112.668 172.38 91.386 189.724 91.386Z" fill="#95BF47"/>
<path d="M256.688 118.025C255.934 118.025 241.606 117.038 241.606 117.038C241.606 117.038 231.652 107.736 230.445 106.75C229.993 106.327 229.541 106.186 228.937 106.045L220.793 260.794L278.858 249.097C278.858 249.097 258.498 120.421 258.347 119.575C258.196 118.588 257.291 118.166 256.688 118.025Z" fill="#5E8E3E"/>
<path d="M201.033 148.044L193.945 167.916C193.945 167.916 187.61 164.815 180.069 164.815C168.758 164.815 168.305 171.439 168.305 173.13C168.305 182.15 193.643 185.674 193.643 206.955C193.643 223.727 182.332 234.438 166.948 234.438C148.548 234.438 139.197 223.727 139.197 223.727L144.174 208.506C144.174 208.506 153.827 216.257 161.971 216.257C167.25 216.257 169.512 212.311 169.512 209.492C169.512 197.654 148.699 197.09 148.699 177.64C148.699 161.292 161.217 145.366 186.705 145.366C196.207 145.366 201.033 148.044 201.033 148.044Z" fill="white"/>
<defs>
<filter id="filter0_di" x="0" y="0" width="390" height="390" filterUnits="userSpaceOnUse" color-interpolation-filters="sRGB">
<feFlood flood-opacity="0" result="BackgroundImageFix"/>
<feColorMatrix in="SourceAlpha" type="matrix" values="0 0 0 0 0 0 0 0 0 0 0 0 0 0 0 0 0 0 127 0"/>
<feOffset dy="20"/>
<feGaussianBlur stdDeviation="20"/>
<feColorMatrix type="matrix" values="0 0 0 0 0 0 0 0 0 0 0 0 0 0 0 0 0 0 0.05 0"/>
<feBlend mode="normal" in2="BackgroundImageFix" result="effect1_dropShadow"/>
<feBlend mode="normal" in="SourceGraphic" in2="effect1_dropShadow" result="shape"/>
<feColorMatrix in="SourceAlpha" type="matrix" values="0 0 0 0 0 0 0 0 0 0 0 0 0 0 0 0 0 0 127 0" result="hardAlpha"/>
<feOffset dy="3"/>
<feGaussianBlur stdDeviation="1.5"/>
<feComposite in2="hardAlpha" operator="arithmetic" k2="-1" k3="1"/>
<feColorMatrix type="matrix" values="0 0 0 0 1 0 0 0 0 1 0 0 0 0 1 0 0 0 1 0"/>
<feBlend mode="normal" in2="shape" result="effect2_innerShadow"/>
</filter>
</defs>
</svg>
